<svg xmlns="http://www.w3.org/2000/svg" width="32" height="32" viewBox="0 0 1100 1098" version="1.1"><path class="path1" d="M 540.500 188.155 C 536.940 190.102, 536 192.258, 536 198.481 C 536 201.835, 535.325 207.171, 534.500 210.339 C 533.675 213.506, 533.006 218.888, 533.013 222.299 C 533.025 228.099, 531.465 248.577, 528.885 276.500 C 527.092 295.902, 526.622 327.374, 527.974 337.500 C 528.635 342.450, 529.589 352.800, 530.094 360.500 C 531.525 382.331, 533.369 388.246, 541.078 395.728 C 546.201 400.701, 554.154 403.551, 560.204 402.583 C 566.557 401.567, 574.626 397.265, 577.806 393.197 C 583.260 386.221, 584.291 381.637, 583.744 366.799 C 582.784 340.819, 579.502 313.300, 575.358 296.500 C 572.997 286.928, 571.892 282.247, 568.451 267.250 C 567.600 263.538, 566.509 258.925, 566.027 257 C 565.546 255.075, 564.214 248.325, 563.067 242 C 560.227 226.329, 559.017 220.210, 557.827 215.500 C 557.271 213.300, 556.228 207.616, 555.508 202.870 C 553.976 192.772, 552.974 190.555, 549.020 188.510 C 545.598 186.741, 543.264 186.643, 540.500 188.155 M 207.077 197.589 C 203.146 200.896, 202.922 206.169, 206.426 212.865 C 208.898 217.588, 210.382 220.994, 213.456 229 C 214.407 231.475, 215.769 234.850, 216.484 236.500 C 217.199 238.150, 218.560 241.300, 219.509 243.500 C 220.457 245.700, 224.373 254.025, 228.210 262 C 232.047 269.975, 236.224 278.750, 237.493 281.500 C 241.540 290.270, 250.521 308.266, 254.461 315.500 C 256.557 319.350, 260.631 327, 263.513 332.500 C 266.395 338, 269.704 344.075, 270.868 346 C 272.031 347.925, 273.280 350.114, 273.643 350.866 C 274.412 352.456, 294.446 382.910, 302.198 394.271 C 326.812 430.346, 328.877 432.825, 363.460 467.807 C 388.334 492.969, 393.219 496.796, 411.500 505.442 C 417 508.043, 422.281 510.583, 423.236 511.086 C 424.191 511.589, 426.789 512, 429.008 512 C 434.789 512, 435.927 509.202, 433.584 500.753 C 426.304 474.498, 422.411 466.026, 407.509 444 C 400.998 434.375, 390.457 418.779, 384.085 409.343 C 377.713 399.907, 366.693 384.867, 359.595 375.921 C 352.497 366.974, 339.710 350.395, 331.179 339.077 C 316.009 318.953, 304.266 304.535, 294.873 294.500 C 292.299 291.750, 287.337 286.058, 283.847 281.851 C 280.356 277.645, 273.142 269.032, 267.816 262.712 C 262.489 256.392, 252.846 244.084, 246.385 235.361 C 239.925 226.637, 234.362 219.275, 234.023 219 C 232.831 218.033, 224.351 206.457, 222.043 202.647 C 219.629 198.662, 214.749 195.010, 211.827 195.004 C 210.906 195.002, 208.769 196.165, 207.077 197.589 M 881.342 196.452 C 879.189 197.389, 876.435 200.481, 872.691 206.163 C 869.670 210.748, 865.448 216.525, 863.309 219 C 861.170 221.475, 854.276 230.475, 847.990 239 C 837.757 252.878, 822.436 271.363, 794.943 303 C 786.729 312.452, 775.983 325.847, 772 331.598 C 771.175 332.789, 765.700 340.004, 759.834 347.632 C 753.968 355.259, 746.577 364.875, 743.410 369 C 740.243 373.125, 737.370 376.725, 737.026 377 C 735.970 377.845, 719.673 400.165, 715.852 406 C 713.871 409.025, 710.482 414.200, 708.321 417.500 C 706.159 420.800, 701.744 427.325, 698.510 432 C 674.127 467.242, 671.678 472.076, 665.328 497.500 C 662.875 507.323, 662.711 508.946, 664.008 510.509 C 665.386 512.170, 672.029 512.526, 674.764 511.086 C 675.719 510.583, 681 508.048, 686.500 505.453 C 704.327 497.043, 710.658 492.130, 733.625 468.883 C 770.661 431.395, 769.284 433.024, 793.956 397.500 C 802.247 385.562, 825.768 349.372, 828.726 344 C 839.206 324.972, 853.633 297.077, 859.500 284.500 C 861.553 280.100, 865.826 271.100, 868.997 264.500 C 872.167 257.900, 876.318 249.125, 878.222 245 C 881.475 237.949, 882.611 235.215, 886.634 224.750 C 887.532 222.412, 889.557 217.962, 891.134 214.860 C 895.611 206.049, 894.861 199.531, 889.020 196.510 C 885.527 194.704, 885.363 194.703, 881.342 196.452 M 548.230 503.820 C 540.906 506.441, 534.116 512.484, 530.500 519.598 C 527.865 524.782, 527.500 526.534, 527.500 534 C 527.500 541.363, 527.878 543.236, 530.325 548 C 531.878 551.025, 534.128 554.566, 535.325 555.870 C 540.505 561.513, 551.031 566, 559.089 566 C 569.902 566, 582.352 557.932, 587.371 547.673 C 591.122 540.008, 591.133 528.449, 587.399 520.562 C 584.501 514.440, 578.368 508.249, 571.969 504.984 C 565.899 501.887, 555.108 501.358, 548.230 503.820 M 385.500 649.160 C 383.300 650.299, 380.426 652.191, 379.114 653.365 C 375.991 656.159, 370.447 664.825, 369.751 668 C 369.449 669.375, 368.707 671.962, 368.101 673.750 C 367.496 675.538, 366.502 678.462, 365.893 680.250 C 365.284 682.038, 364.402 685.300, 363.934 687.500 C 363.465 689.700, 362.383 694.425, 361.530 698 C 357.802 713.617, 355.772 728.499, 356.347 736 C 358.790 767.861, 359.317 772.160, 362.168 783.500 C 362.722 785.700, 363.554 789.525, 364.019 792 C 365.717 801.049, 371.032 816.867, 375.617 826.514 C 376.928 829.272, 378 831.964, 378 832.495 C 378 833.027, 378.956 835.769, 380.125 838.589 C 383.583 846.931, 389.526 849.187, 395.040 844.250 C 398.740 840.939, 398.779 840.427, 397.058 817.712 C 395.208 793.281, 395.957 781.832, 400.997 757.500 C 401.933 752.982, 404.411 744.130, 408.519 730.635 C 409.334 727.960, 410 724.940, 410 723.925 C 410 721.521, 414.264 704.222, 418.030 691.348 C 422.184 677.147, 422.177 667.585, 418.006 660.313 C 413.044 651.661, 404.950 646.967, 395.128 647.044 C 391.462 647.073, 388.105 647.811, 385.500 649.160 M 697.413 648.961 C 692.106 651.323, 686.143 657.561, 683.895 663.104 C 681.733 668.435, 681.497 678.031, 683.381 684.072 C 687.967 698.781, 693 718.573, 693 721.900 C 693 722.928, 693.710 726.185, 694.578 729.135 C 695.446 732.086, 696.866 736.975, 697.733 740 C 698.599 743.025, 699.871 747.300, 700.559 749.500 C 701.247 751.700, 702.296 755.975, 702.890 759 C 707.034 780.116, 707.119 781.162, 706.608 804.500 C 706.331 817.150, 705.821 830.468, 705.474 834.095 C 704.859 840.520, 704.924 840.770, 707.998 843.845 C 711.574 847.420, 714.758 847.839, 718.785 845.264 C 722.395 842.955, 723.772 841.106, 724.566 837.500 C 724.930 835.850, 726.296 832.217, 727.603 829.426 C 732.558 818.843, 735.208 810.996, 739.394 794.500 C 746.201 767.676, 747.199 759.451, 746.698 734.327 C 746.426 720.710, 745.748 711.077, 744.739 706.500 C 740.208 685.943, 734.252 666.128, 731.063 661 C 725.455 651.981, 716.981 646.961, 707.554 647.071 C 704.009 647.112, 699.806 647.895, 697.413 648.961" stroke="none" fill="#fff" fill-rule="evenodd"/><path class="path2" d="M 264 36.640 C 233.611 41.256, 216.099 45.741, 195 54.315 C 135.979 78.299, 90.271 120.822, 62.589 177.500 C 56.632 189.696, 47.931 211.778, 46.434 218.500 C 46.066 220.150, 45.184 223.525, 44.473 226 C 42.756 231.978, 40.586 242.948, 38.339 257 C 36.585 267.966, 36.500 281.536, 36.500 549 C 36.500 854.649, 36.143 833.115, 41.659 860 C 44.885 875.719, 51.668 896.638, 58.677 912.484 C 84.714 971.345, 134.583 1019.727, 193 1042.801 C 220.481 1053.656, 237.897 1058.084, 265.545 1061.247 C 281.496 1063.072, 818.504 1063.072, 834.455 1061.247 C 902.938 1053.413, 962.114 1022.315, 1004.201 972.044 C 1034.848 935.437, 1052.969 894.283, 1061.684 841.500 C 1063.408 831.055, 1063.500 816.297, 1063.500 549 C 1063.500 289.163, 1063.370 266.769, 1061.811 258 C 1060.881 252.775, 1059.850 246.475, 1059.518 244 C 1059.186 241.525, 1057.763 234.775, 1056.357 229 C 1040.020 161.936, 995.854 103.066, 937 69.908 C 908.687 53.956, 885.453 45.559, 850.824 38.761 L 839.500 36.538 553 36.399 C 395.425 36.323, 265.375 36.431, 264 36.640 M 540.500 188.155 C 536.940 190.102, 536 192.258, 536 198.481 C 536 201.835, 535.325 207.171, 534.500 210.339 C 533.675 213.506, 533.006 218.888, 533.013 222.299 C 533.025 228.099, 531.465 248.577, 528.885 276.500 C 527.092 295.902, 526.622 327.374, 527.974 337.500 C 528.635 342.450, 529.589 352.800, 530.094 360.500 C 531.525 382.331, 533.369 388.246, 541.078 395.728 C 546.201 400.701, 554.154 403.551, 560.204 402.583 C 566.557 401.567, 574.626 397.265, 577.806 393.197 C 583.260 386.221, 584.291 381.637, 583.744 366.799 C 582.784 340.819, 579.502 313.300, 575.358 296.500 C 572.997 286.928, 571.892 282.247, 568.451 267.250 C 567.600 263.538, 566.509 258.925, 566.027 257 C 565.546 255.075, 564.214 248.325, 563.067 242 C 560.227 226.329, 559.017 220.210, 557.827 215.500 C 557.271 213.300, 556.228 207.616, 555.508 202.870 C 553.976 192.772, 552.974 190.555, 549.020 188.510 C 545.598 186.741, 543.264 186.643, 540.500 188.155 M 207.077 197.589 C 203.146 200.896, 202.922 206.169, 206.426 212.865 C 208.898 217.588, 210.382 220.994, 213.456 229 C 214.407 231.475, 215.769 234.850, 216.484 236.500 C 217.199 238.150, 218.560 241.300, 219.509 243.500 C 220.457 245.700, 224.373 254.025, 228.210 262 C 232.047 269.975, 236.224 278.750, 237.493 281.500 C 241.540 290.270, 250.521 308.266, 254.461 315.500 C 256.557 319.350, 260.631 327, 263.513 332.500 C 266.395 338, 269.704 344.075, 270.868 346 C 272.031 347.925, 273.280 350.114, 273.643 350.866 C 274.412 352.456, 294.446 382.910, 302.198 394.271 C 326.812 430.346, 328.877 432.825, 363.460 467.807 C 388.334 492.969, 393.219 496.796, 411.500 505.442 C 417 508.043, 422.281 510.583, 423.236 511.086 C 424.191 511.589, 426.789 512, 429.008 512 C 434.789 512, 435.927 509.202, 433.584 500.753 C 426.304 474.498, 422.411 466.026, 407.509 444 C 400.998 434.375, 390.457 418.779, 384.085 409.343 C 377.713 399.907, 366.693 384.867, 359.595 375.921 C 352.497 366.974, 339.710 350.395, 331.179 339.077 C 316.009 318.953, 304.266 304.535, 294.873 294.500 C 292.299 291.750, 287.337 286.058, 283.847 281.851 C 280.356 277.645, 273.142 269.032, 267.816 262.712 C 262.489 256.392, 252.846 244.084, 246.385 235.361 C 239.925 226.637, 234.362 219.275, 234.023 219 C 232.831 218.033, 224.351 206.457, 222.043 202.647 C 219.629 198.662, 214.749 195.010, 211.827 195.004 C 210.906 195.002, 208.769 196.165, 207.077 197.589 M 881.342 196.452 C 879.189 197.389, 876.435 200.481, 872.691 206.163 C 869.670 210.748, 865.448 216.525, 863.309 219 C 861.170 221.475, 854.276 230.475, 847.990 239 C 837.757 252.878, 822.436 271.363, 794.943 303 C 786.729 312.452, 775.983 325.847, 772 331.598 C 771.175 332.789, 765.700 340.004, 759.834 347.632 C 753.968 355.259, 746.577 364.875, 743.410 369 C 740.243 373.125, 737.370 376.725, 737.026 377 C 735.970 377.845, 719.673 400.165, 715.852 406 C 713.871 409.025, 710.482 414.200, 708.321 417.500 C 706.159 420.800, 701.744 427.325, 698.510 432 C 674.127 467.242, 671.678 472.076, 665.328 497.500 C 662.875 507.323, 662.711 508.946, 664.008 510.509 C 665.386 512.170, 672.029 512.526, 674.764 511.086 C 675.719 510.583, 681 508.048, 686.500 505.453 C 704.327 497.043, 710.658 492.130, 733.625 468.883 C 770.661 431.395, 769.284 433.024, 793.956 397.500 C 802.247 385.562, 825.768 349.372, 828.726 344 C 839.206 324.972, 853.633 297.077, 859.500 284.500 C 861.553 280.100, 865.826 271.100, 868.997 264.500 C 872.167 257.900, 876.318 249.125, 878.222 245 C 881.475 237.949, 882.611 235.215, 886.634 224.750 C 887.532 222.412, 889.557 217.962, 891.134 214.860 C 895.611 206.049, 894.861 199.531, 889.020 196.510 C 885.527 194.704, 885.363 194.703, 881.342 196.452 M 548.230 503.820 C 540.906 506.441, 534.116 512.484, 530.500 519.598 C 527.865 524.782, 527.500 526.534, 527.500 534 C 527.500 541.363, 527.878 543.236, 530.325 548 C 531.878 551.025, 534.128 554.566, 535.325 555.870 C 540.505 561.513, 551.031 566, 559.089 566 C 569.902 566, 582.352 557.932, 587.371 547.673 C 591.122 540.008, 591.133 528.449, 587.399 520.562 C 584.501 514.440, 578.368 508.249, 571.969 504.984 C 565.899 501.887, 555.108 501.358, 548.230 503.820 M 385.500 649.160 C 383.300 650.299, 380.426 652.191, 379.114 653.365 C 375.991 656.159, 370.447 664.825, 369.751 668 C 369.449 669.375, 368.707 671.962, 368.101 673.750 C 367.496 675.538, 366.502 678.462, 365.893 680.250 C 365.284 682.038, 364.402 685.300, 363.934 687.500 C 363.465 689.700, 362.383 694.425, 361.530 698 C 357.802 713.617, 355.772 728.499, 356.347 736 C 358.790 767.861, 359.317 772.160, 362.168 783.500 C 362.722 785.700, 363.554 789.525, 364.019 792 C 365.717 801.049, 371.032 816.867, 375.617 826.514 C 376.928 829.272, 378 831.964, 378 832.495 C 378 833.027, 378.956 835.769, 380.125 838.589 C 383.583 846.931, 389.526 849.187, 395.040 844.250 C 398.740 840.939, 398.779 840.427, 397.058 817.712 C 395.208 793.281, 395.957 781.832, 400.997 757.500 C 401.933 752.982, 404.411 744.130, 408.519 730.635 C 409.334 727.960, 410 724.940, 410 723.925 C 410 721.521, 414.264 704.222, 418.030 691.348 C 422.184 677.147, 422.177 667.585, 418.006 660.313 C 413.044 651.661, 404.950 646.967, 395.128 647.044 C 391.462 647.073, 388.105 647.811, 385.500 649.160 M 697.413 648.961 C 692.106 651.323, 686.143 657.561, 683.895 663.104 C 681.733 668.435, 681.497 678.031, 683.381 684.072 C 687.967 698.781, 693 718.573, 693 721.900 C 693 722.928, 693.710 726.185, 694.578 729.135 C 695.446 732.086, 696.866 736.975, 697.733 740 C 698.599 743.025, 699.871 747.300, 700.559 749.500 C 701.247 751.700, 702.296 755.975, 702.890 759 C 707.034 780.116, 707.119 781.162, 706.608 804.500 C 706.331 817.150, 705.821 830.468, 705.474 834.095 C 704.859 840.520, 704.924 840.770, 707.998 843.845 C 711.574 847.420, 714.758 847.839, 718.785 845.264 C 722.395 842.955, 723.772 841.106, 724.566 837.500 C 724.930 835.850, 726.296 832.217, 727.603 829.426 C 732.558 818.843, 735.208 810.996, 739.394 794.500 C 746.201 767.676, 747.199 759.451, 746.698 734.327 C 746.426 720.710, 745.748 711.077, 744.739 706.500 C 740.208 685.943, 734.252 666.128, 731.063 661 C 725.455 651.981, 716.981 646.961, 707.554 647.071 C 704.009 647.112, 699.806 647.895, 697.413 648.961" stroke="none" fill="#000" fill-rule="evenodd"/>
    <style>
        .path1 { fill: #fff; }
        .path2 { fill: #000; }

        @media (prefers-color-scheme: dark) {
            .path1 { fill: #000; }
            .path2 { fill: #fff; }
        }
    </style>
</svg>